<mxfile host="app.diagrams.net" agent="Mozilla/5.0 (Windows NT 10.0; Win64; x64) AppleWebKit/537.36 (KHTML, like Gecko) Chrome/129.0.0.0 Safari/537.36" version="24.7.17">
  <diagram name="Page-1" id="5f0bae14-7c28-e335-631c-24af17079c00">
    <mxGraphModel dx="2134" dy="454" grid="1" gridSize="10" guides="1" tooltips="1" connect="1" arrows="1" fold="1" page="1" pageScale="1" pageWidth="1100" pageHeight="850" background="none" math="0" shadow="0">
      <root>
        <mxCell id="0" />
        <mxCell id="1" parent="0" />
        <mxCell id="39150e848f15840c-2" value="&lt;span style=&quot;&quot;&gt;«subsystem»&lt;/span&gt;&lt;br style=&quot;&quot;&gt;service" style="verticalAlign=top;align=center;spacingTop=8;spacingLeft=2;spacingRight=12;shape=cube;size=10;direction=south;fontStyle=4;html=1;rounded=0;shadow=0;comic=0;labelBackgroundColor=none;strokeWidth=1;fontFamily=Verdana;fontSize=12" parent="1" vertex="1">
          <mxGeometry x="70" y="60" width="470" height="410" as="geometry" />
        </mxCell>
        <mxCell id="uGzlzYweCg2cSBXO9FAN-8" style="edgeStyle=orthogonalEdgeStyle;rounded=0;orthogonalLoop=1;jettySize=auto;html=1;exitX=1;exitY=0.5;exitDx=0;exitDy=0;exitPerimeter=0;entryX=0;entryY=0.5;entryDx=0;entryDy=0;" edge="1" parent="1" source="uGzlzYweCg2cSBXO9FAN-1" target="uGzlzYweCg2cSBXO9FAN-4">
          <mxGeometry relative="1" as="geometry" />
        </mxCell>
        <mxCell id="uGzlzYweCg2cSBXO9FAN-1" value="Unreal In" style="shape=providedRequiredInterface;html=1;verticalLabelPosition=bottom;sketch=0;" vertex="1" parent="1">
          <mxGeometry y="180" width="20" height="20" as="geometry" />
        </mxCell>
        <mxCell id="uGzlzYweCg2cSBXO9FAN-9" style="edgeStyle=orthogonalEdgeStyle;rounded=0;orthogonalLoop=1;jettySize=auto;html=1;exitX=1;exitY=0.5;exitDx=0;exitDy=0;entryX=0;entryY=0.5;entryDx=0;entryDy=0;" edge="1" parent="1" source="uGzlzYweCg2cSBXO9FAN-4" target="uGzlzYweCg2cSBXO9FAN-5">
          <mxGeometry relative="1" as="geometry" />
        </mxCell>
        <mxCell id="uGzlzYweCg2cSBXO9FAN-4" value="" style="whiteSpace=wrap;html=1;aspect=fixed;" vertex="1" parent="1">
          <mxGeometry x="60" y="180" width="20" height="20" as="geometry" />
        </mxCell>
        <mxCell id="uGzlzYweCg2cSBXO9FAN-15" style="edgeStyle=orthogonalEdgeStyle;rounded=0;orthogonalLoop=1;jettySize=auto;html=1;exitX=1;exitY=0.5;exitDx=0;exitDy=0;entryX=0;entryY=0.5;entryDx=0;entryDy=0;" edge="1" parent="1" source="uGzlzYweCg2cSBXO9FAN-5" target="uGzlzYweCg2cSBXO9FAN-12">
          <mxGeometry relative="1" as="geometry" />
        </mxCell>
        <mxCell id="uGzlzYweCg2cSBXO9FAN-5" value="«component»&lt;br&gt;&lt;b&gt;Transkripcia&lt;/b&gt;" style="html=1;dropTarget=0;whiteSpace=wrap;" vertex="1" parent="1">
          <mxGeometry x="120" y="155" width="150" height="70" as="geometry" />
        </mxCell>
        <mxCell id="uGzlzYweCg2cSBXO9FAN-6" value="" style="shape=module;jettyWidth=8;jettyHeight=4;" vertex="1" parent="uGzlzYweCg2cSBXO9FAN-5">
          <mxGeometry x="1" width="20" height="20" relative="1" as="geometry">
            <mxPoint x="-27" y="7" as="offset" />
          </mxGeometry>
        </mxCell>
        <mxCell id="uGzlzYweCg2cSBXO9FAN-19" style="edgeStyle=orthogonalEdgeStyle;rounded=0;orthogonalLoop=1;jettySize=auto;html=1;exitX=0.5;exitY=1;exitDx=0;exitDy=0;" edge="1" parent="1" source="uGzlzYweCg2cSBXO9FAN-12" target="uGzlzYweCg2cSBXO9FAN-16">
          <mxGeometry relative="1" as="geometry" />
        </mxCell>
        <mxCell id="uGzlzYweCg2cSBXO9FAN-12" value="«component»&lt;br&gt;&lt;b&gt;Vektorová DB&lt;/b&gt;" style="html=1;dropTarget=0;whiteSpace=wrap;" vertex="1" parent="1">
          <mxGeometry x="330" y="155" width="150" height="70" as="geometry" />
        </mxCell>
        <mxCell id="uGzlzYweCg2cSBXO9FAN-13" value="" style="shape=module;jettyWidth=8;jettyHeight=4;" vertex="1" parent="uGzlzYweCg2cSBXO9FAN-12">
          <mxGeometry x="1" width="20" height="20" relative="1" as="geometry">
            <mxPoint x="-27" y="7" as="offset" />
          </mxGeometry>
        </mxCell>
        <mxCell id="uGzlzYweCg2cSBXO9FAN-22" style="edgeStyle=orthogonalEdgeStyle;rounded=0;orthogonalLoop=1;jettySize=auto;html=1;exitX=0;exitY=0.5;exitDx=0;exitDy=0;entryX=1;entryY=0.5;entryDx=0;entryDy=0;" edge="1" parent="1" source="uGzlzYweCg2cSBXO9FAN-16" target="uGzlzYweCg2cSBXO9FAN-20">
          <mxGeometry relative="1" as="geometry" />
        </mxCell>
        <mxCell id="uGzlzYweCg2cSBXO9FAN-16" value="«component»&lt;br&gt;&lt;b&gt;Dopyt LLM&lt;/b&gt;" style="html=1;dropTarget=0;whiteSpace=wrap;" vertex="1" parent="1">
          <mxGeometry x="330" y="310" width="150" height="70" as="geometry" />
        </mxCell>
        <mxCell id="uGzlzYweCg2cSBXO9FAN-17" value="" style="shape=module;jettyWidth=8;jettyHeight=4;" vertex="1" parent="uGzlzYweCg2cSBXO9FAN-16">
          <mxGeometry x="1" width="20" height="20" relative="1" as="geometry">
            <mxPoint x="-27" y="7" as="offset" />
          </mxGeometry>
        </mxCell>
        <mxCell id="uGzlzYweCg2cSBXO9FAN-25" style="edgeStyle=orthogonalEdgeStyle;rounded=0;orthogonalLoop=1;jettySize=auto;html=1;exitX=0;exitY=0.5;exitDx=0;exitDy=0;entryX=1;entryY=0.5;entryDx=0;entryDy=0;" edge="1" parent="1" source="uGzlzYweCg2cSBXO9FAN-20" target="uGzlzYweCg2cSBXO9FAN-23">
          <mxGeometry relative="1" as="geometry" />
        </mxCell>
        <mxCell id="uGzlzYweCg2cSBXO9FAN-20" value="«component»&lt;br&gt;&lt;b&gt;Syntéza&lt;/b&gt;" style="html=1;dropTarget=0;whiteSpace=wrap;" vertex="1" parent="1">
          <mxGeometry x="120" y="310" width="150" height="70" as="geometry" />
        </mxCell>
        <mxCell id="uGzlzYweCg2cSBXO9FAN-21" value="" style="shape=module;jettyWidth=8;jettyHeight=4;" vertex="1" parent="uGzlzYweCg2cSBXO9FAN-20">
          <mxGeometry x="1" width="20" height="20" relative="1" as="geometry">
            <mxPoint x="-27" y="7" as="offset" />
          </mxGeometry>
        </mxCell>
        <mxCell id="uGzlzYweCg2cSBXO9FAN-23" value="" style="whiteSpace=wrap;html=1;aspect=fixed;" vertex="1" parent="1">
          <mxGeometry x="60" y="335" width="20" height="20" as="geometry" />
        </mxCell>
        <mxCell id="uGzlzYweCg2cSBXO9FAN-24" value="Unreal Out" style="shape=providedRequiredInterface;html=1;verticalLabelPosition=bottom;sketch=0;" vertex="1" parent="1">
          <mxGeometry y="335" width="20" height="20" as="geometry" />
        </mxCell>
        <mxCell id="uGzlzYweCg2cSBXO9FAN-26" style="edgeStyle=orthogonalEdgeStyle;rounded=0;orthogonalLoop=1;jettySize=auto;html=1;exitX=0;exitY=0.5;exitDx=0;exitDy=0;entryX=1;entryY=0.5;entryDx=0;entryDy=0;entryPerimeter=0;" edge="1" parent="1" source="uGzlzYweCg2cSBXO9FAN-23" target="uGzlzYweCg2cSBXO9FAN-24">
          <mxGeometry relative="1" as="geometry" />
        </mxCell>
      </root>
    </mxGraphModel>
  </diagram>
</mxfile>
